<?xml version="1.0" standalone="no"?>
<!DOCTYPE svg PUBLIC "-//W3C//DTD SVG 20010904//EN"
 "http://www.w3.org/TR/2001/REC-SVG-20010904/DTD/svg10.dtd">
<svg version="1.0" xmlns="http://www.w3.org/2000/svg"
 width="300.000000pt" height="300.000000pt" viewBox="0 0 300.000000 300.000000"
 preserveAspectRatio="xMidYMid meet">

<g transform="translate(0.000000,300.000000) scale(0.100000,-0.100000)"
fill="#000000" stroke="none">
<path d="M1809 2448 c-14 -38 -23 -46 -69 -68 -8 -4 -15 -16 -15 -26 0 -15 7
-19 34 -19 33 0 35 3 55 58 l21 59 43 -5 c24 -3 46 -8 49 -11 15 -15 -14 -62
-50 -79 -45 -21 -51 -53 -11 -63 33 -8 46 6 73 79 30 83 29 91 -24 105 -77 20
-89 17 -106 -30z"/>
<path d="M1166 2392 c-2 -4 1 -31 6 -60 11 -52 10 -55 -16 -79 -29 -27 -30
-40 -3 -57 12 -8 22 -8 35 0 14 10 16 24 14 78 -3 68 6 81 31 46 14 -20 27
-17 27 6 0 15 -87 76 -94 66z"/>
<path d="M1407 2258 c14 -57 8 -140 -15 -198 -13 -32 -52 -90 -92 -138 -38
-45 -73 -94 -76 -107 -9 -36 -20 -31 -43 18 -11 23 -26 49 -33 58 -20 24 -66
51 -76 45 -5 -3 -11 -36 -14 -73 -4 -50 -14 -85 -38 -133 -140 -277 -126 -479
42 -636 l60 -54 -34 -14 c-70 -30 -224 -105 -239 -118 -33 -28 -51 -69 -51
-117 0 -78 46 -143 115 -162 72 -19 87 -11 324 158 101 72 130 86 120 59 -3
-8 -9 -63 -12 -123 -7 -102 -6 -110 16 -143 14 -19 45 -46 72 -59 61 -30 122
-23 172 20 49 44 59 82 50 211 -5 76 -4 109 4 107 10 -4 110 -74 235 -166 81
-61 129 -78 180 -69 78 15 146 114 132 191 -12 63 -62 105 -200 170 -69 32
-126 62 -126 65 0 3 23 30 51 59 61 64 104 151 120 246 17 101 -12 242 -77
371 -51 101 -104 172 -121 161 -6 -4 -13 -30 -17 -59 -10 -75 -48 -130 -77
-112 -5 3 -9 49 -9 104 0 124 -24 206 -84 287 -51 69 -110 120 -183 157 -72
36 -87 35 -76 -6z m181 -200 c50 -54 79 -189 41 -196 -11 -2 -19 11 -27 49 -7
28 -26 71 -42 96 -17 24 -30 51 -30 59 0 22 34 17 58 -8z m-68 -403 c0 -52 19
-96 60 -140 16 -16 40 -50 53 -74 l25 -43 20 44 c24 55 38 66 47 36 4 -13 22
-62 41 -109 42 -106 45 -171 10 -244 -27 -59 -42 -73 -116 -111 -51 -27 -63
-29 -170 -29 -107 0 -119 2 -170 29 -72 37 -87 51 -117 110 -37 73 -31 164 19
269 20 42 41 77 45 77 4 0 16 -19 25 -41 12 -29 22 -40 35 -37 15 3 19 17 24
75 4 55 12 82 35 119 27 45 103 114 125 114 5 0 9 -20 9 -45z m-520 -770 c56
-29 79 -126 44 -180 -48 -73 -178 -45 -205 45 -15 49 -6 85 31 121 33 33 83
39 130 14z m1130 -12 c59 -54 46 -149 -27 -194 -99 -61 -204 53 -148 161 33
63 123 80 175 33z m-559 -116 c63 -42 71 -124 17 -177 -52 -52 -124 -52 -177
0 -39 39 -47 79 -26 124 34 72 121 97 186 53z"/>
<path d="M2198 2234 c-5 -4 -8 -30 -8 -58 0 -40 -4 -54 -20 -64 -26 -16 -26
-42 0 -42 13 0 24 10 31 27 11 30 8 149 -3 137z"/>
<path d="M905 2148 c-57 -49 -98 -150 -81 -195 10 -26 26 3 26 48 0 45 48 122
89 144 17 8 31 20 31 25 0 19 -30 9 -65 -22z"/>
<path d="M1950 2171 c0 -5 15 -19 34 -31 42 -25 86 -109 86 -162 0 -21 5 -38
10 -38 17 0 11 82 -9 125 -20 44 -44 73 -81 98 -27 19 -40 21 -40 8z"/>
<path d="M962 2072 c-33 -31 -52 -69 -52 -103 0 -35 17 -20 29 25 7 28 21 51
37 63 15 11 25 25 23 32 -3 9 -15 3 -37 -17z"/>
<path d="M1945 2054 c14 -15 28 -44 31 -66 8 -44 24 -51 24 -9 0 34 -39 94
-63 99 -14 3 -12 -2 8 -24z"/>
</g>
</svg>
