<?xml version="1.0" encoding="UTF-8"?>
<svg version="1.1" xmlns="http://www.w3.org/2000/svg" width="512" height="512">
<path d="M0 0 C26.35818217 4.31315708 51.3029569 21.76562026 70 40 C70.81339844 40.73992188 71.62679687 41.47984375 72.46484375 42.2421875 C109.70219534 77.1258005 123.87633981 132.8074989 127 182 C127.1168837 186.03768061 127.11786156 190.07028503 127.09765625 194.109375 C127.09553383 195.74860931 127.09553383 195.74860931 127.09336853 197.42095947 C127.08783294 200.86400249 127.07529306 204.3069771 127.0625 207.75 C127.05747666 210.10416572 127.05291522 212.45833247 127.04882812 214.8125 C127.03788473 220.54168946 127.02121234 226.27083984 127 232 C127.19208542 231.4099971 127.38417084 230.8199942 127.58207703 230.21211243 C128.47096642 227.49023495 129.36630255 224.77051826 130.26171875 222.05078125 C130.71460266 220.65913757 130.71460266 220.65913757 131.17663574 219.23937988 C143.6510754 181.46839902 170.741399 148.38893153 206.12304688 129.94384766 C209.60751101 128.19164444 213.13080939 126.53754845 216.6875 124.9375 C217.37126709 124.62586914 218.05503418 124.31423828 218.75952148 123.99316406 C223.63683544 121.87894515 223.63683544 121.87894515 227 123 C226.113125 123.9075 225.22625 124.815 224.3125 125.75 C210.96908557 141.61103979 211.93527854 166.44287574 213.46679688 185.95361328 C217.03849188 225.13953257 228.99708604 262.8666569 241.72509766 299.89501953 C255.80797888 340.98354475 259.10111105 385.00538414 239.55078125 424.96484375 C239.03902344 425.96644531 238.52726562 426.96804688 238 428 C237.47792969 429.05316406 236.95585937 430.10632813 236.41796875 431.19140625 C232.03243866 439.7262435 226.77062836 447.36862892 221 455 C220.34902344 455.87785156 219.69804687 456.75570313 219.02734375 457.66015625 C207.71812359 472.20700604 193.9080942 485.21266701 179 496 C177.79285894 496.89047616 176.58582986 497.78110414 175.37890625 498.671875 C157.15851798 512 157.15851798 512 153 512 C153.89823136 507.92341151 154.79739877 503.84968473 155.765625 499.7890625 C156.02859375 498.68304688 156.2915625 497.57703125 156.5625 496.4375 C156.93568359 494.88869141 156.93568359 494.88869141 157.31640625 493.30859375 C162.98313952 465.88160473 157.21225943 435.50985548 142 412 C124.20524339 386.17948686 98.68394205 369.11811365 67.8125 363.1875 C39.42111653 358.33653054 9.27482172 364.84414576 -14.3984375 381.3125 C-39.87696567 399.80413282 -55.03160204 425.46545903 -60.60546875 456.35546875 C-62.43192692 473.2276021 -60.69328946 489.51771355 -57 506 C-82.96263139 497.09719462 -106.8257896 461.68800023 -118.66479492 437.95385742 C-142.90109958 387.4551116 -139.69297122 330.08274738 -122 278 C-106.92326713 236.0178909 -83.64336659 196.47208363 -53 164 C-51.22126811 162.00073428 -49.46769084 159.98233774 -47.71875 157.95703125 C-46.51066195 156.58145826 -45.27917453 155.22625679 -44.03125 153.88671875 C-13.81858054 121.32052612 10.63015487 79.93994442 9.13623047 34.34277344 C8.56657819 24.54638765 6.19623454 15.37122404 2.0859375 6.453125 C1.12913703 4.29171963 0.48483972 2.30568221 0 0 Z " fill="#C20A19" transform="translate(198,0)"/>
</svg>
